<svg width="14" height="16" viewBox="0 0 14 16" fill="none" xmlns="http://www.w3.org/2000/svg">
<path d="M13.0938 1.8125H9.57812L9.28516 1.28516C9.16797 1.05078 8.93359 0.875 8.66992 0.875H5.30078C5.03711 0.875 4.80273 1.05078 4.68555 1.28516L4.42188 1.8125H0.90625C0.642578 1.8125 0.4375 2.04688 0.4375 2.28125V3.21875C0.4375 3.48242 0.642578 3.6875 0.90625 3.6875H13.0938C13.3281 3.6875 13.5625 3.48242 13.5625 3.21875V2.28125C13.5625 2.04688 13.3281 1.8125 13.0938 1.8125ZM1.99023 14.5566C2.01953 15.3184 2.63477 15.875 3.39648 15.875H10.5742C11.3359 15.875 11.9512 15.3184 11.9805 14.5566L12.625 4.625H1.375L1.99023 14.5566Z" fill="#555555"/>
</svg>
